<svg width="128" height="128" viewBox="0 0 128 128" fill="none" xmlns="http://www.w3.org/2000/svg">
<g clip-path="url(#clip0_3_2792)">
<rect width="128" height="128" rx="30" fill="#583588"/>
<rect width="128" height="128" fill="#583588"/>
<g filter="url(#filter0_f_3_2792)">
<circle cx="-2" cy="-4" r="68" fill="#B523B4"/>
</g>
<g filter="url(#filter1_f_3_2792)">
<circle cx="4" cy="5" r="68" fill="#B523B4"/>
</g>
<g filter="url(#filter2_f_3_2792)">
<circle cx="110" cy="149" r="68" fill="#0659F9"/>
</g>
<path d="M54.545 75.3292L67.8944 58.2869H72.5138L93.0677 32H74.2089L55.3078 56.5988H54.545V75.3292ZM37 90H54.9688V32H37V90ZM73.1071 90H94L69.1658 51.9362L56.0283 62.7082L73.1071 90Z" fill="white"/>
<path d="M56.4688 52.6259V32V30.5H54.9688H37H35.5V32V90V91.5H37H54.9688H56.4688V90V75.3057L59.6225 71.2795L71.8355 90.7957L72.2762 91.5H73.1071H94H96.7697L95.2563 89.1804L74.7898 57.8112L94.2493 32.9239L96.1446 30.5H93.0677H74.2089H73.4698L73.0195 31.0861L56.4688 52.6259Z" stroke="black" stroke-opacity="0.2" stroke-width="3"/>
<g style="mix-blend-mode:overlay" opacity="0.7">
<path d="M54.545 75.3292L67.8944 58.2869H72.5138L93.0677 32H74.2089L55.3078 56.5988H54.545V75.3292ZM37 90H54.9688V32H37V90ZM73.1071 90H94L69.1658 51.9362L56.0283 62.7082L73.1071 90Z" fill="url(#paint0_linear_3_2792)"/>
</g>
</g>
<defs>
<filter id="filter0_f_3_2792" x="-170" y="-172" width="336" height="336" filterUnits="userSpaceOnUse" color-interpolation-filters="sRGB">
<feFlood flood-opacity="0" result="BackgroundImageFix"/>
<feBlend mode="normal" in="SourceGraphic" in2="BackgroundImageFix" result="shape"/>
<feGaussianBlur stdDeviation="50" result="effect1_foregroundBlur_3_2792"/>
</filter>
<filter id="filter1_f_3_2792" x="-164" y="-163" width="336" height="336" filterUnits="userSpaceOnUse" color-interpolation-filters="sRGB">
<feFlood flood-opacity="0" result="BackgroundImageFix"/>
<feBlend mode="normal" in="SourceGraphic" in2="BackgroundImageFix" result="shape"/>
<feGaussianBlur stdDeviation="50" result="effect1_foregroundBlur_3_2792"/>
</filter>
<filter id="filter2_f_3_2792" x="-58" y="-19" width="336" height="336" filterUnits="userSpaceOnUse" color-interpolation-filters="sRGB">
<feFlood flood-opacity="0" result="BackgroundImageFix"/>
<feBlend mode="normal" in="SourceGraphic" in2="BackgroundImageFix" result="shape"/>
<feGaussianBlur stdDeviation="50" result="effect1_foregroundBlur_3_2792"/>
</filter>
<linearGradient id="paint0_linear_3_2792" x1="48.5" y1="34" x2="58.5" y2="63" gradientUnits="userSpaceOnUse">
<stop stop-color="white"/>
<stop offset="0.117896" stop-color="white" stop-opacity="0.991615"/>
<stop offset="0.213837" stop-color="white" stop-opacity="0.967585"/>
<stop offset="0.2912" stop-color="white" stop-opacity="0.9296"/>
<stop offset="0.353363" stop-color="white" stop-opacity="0.879348"/>
<stop offset="0.403704" stop-color="white" stop-opacity="0.818519"/>
<stop offset="0.4456" stop-color="white" stop-opacity="0.7488"/>
<stop offset="0.48243" stop-color="white" stop-opacity="0.671881"/>
<stop offset="0.51757" stop-color="white" stop-opacity="0.589452"/>
<stop offset="0.5544" stop-color="white" stop-opacity="0.5032"/>
<stop offset="0.596296" stop-color="white" stop-opacity="0.414815"/>
<stop offset="0.646637" stop-color="white" stop-opacity="0.325985"/>
<stop offset="0.7088" stop-color="white" stop-opacity="0.2384"/>
<stop offset="0.786163" stop-color="white" stop-opacity="0.153748"/>
<stop offset="0.882104" stop-color="white" stop-opacity="0.0737185"/>
<stop offset="1" stop-color="white" stop-opacity="0"/>
</linearGradient>
<clipPath id="clip0_3_2792">
<rect width="128" height="128" rx="30" fill="white"/>
</clipPath>
</defs>
</svg>
