<svg width="64" height="15" viewBox="0 0 64 15" fill="none" xmlns="http://www.w3.org/2000/svg">
<path d="M13.9844 15H17.7738V10.7588L19.0542 9.08524L22.7714 15H27.2217L21.8214 6.63202L26.9223 0H22.8643L17.8461 6.60083H17.7738V0H13.9844V15Z" fill="white"/>
<path d="M26.2635 15H33.3778C36.5684 15 38.5818 13.316 38.5818 10.7069V10.6861C38.5818 8.72141 36.9814 7.23493 34.9473 7.13098V7.05821C36.6406 6.83992 37.9313 5.48857 37.9313 3.79418V3.77339C37.9313 1.43451 36.145 0 33.1919 0H26.2635V15ZM32.1903 2.69231C33.4707 2.69231 34.2348 3.31601 34.2348 4.35551V4.3763C34.2348 5.49896 33.4294 6.16424 31.9116 6.16424H30.053V2.69231H32.1903ZM32.1903 8.56549C33.8527 8.56549 34.7304 9.22037 34.7304 10.4158V10.4366C34.7304 11.6528 33.8527 12.3077 32.3039 12.3077H30.053V8.56549H32.1903Z" fill="white"/>
<path d="M38.0676 15H44.1184C48.61 15 51.2636 12.2037 51.2636 7.41164V7.39085C51.2636 2.61954 48.61 0 44.1184 0H38.0676V15ZM41.8571 11.9231V3.07692H43.6228C46.008 3.07692 47.4122 4.59459 47.4122 7.40125V7.42204C47.4122 10.4158 46.0906 11.9231 43.6228 11.9231H41.8571Z" fill="white"/>
<path fill-rule="evenodd" clip-rule="evenodd" d="M11.2928 13.3749L0 9.57448V6.03298L11.2928 2.2326V5.44273L3.45888 7.76231L11.2928 10.0922V13.3749ZM52.7069 2.2326L63.9998 6.03298V9.57448L52.7069 13.3749V10.1647L60.5409 7.8348L52.7069 5.51522V2.2326Z" fill="url(#paint0_linear_126_1443)"/>
<defs>
<linearGradient id="paint0_linear_126_1443" x1="0.38089" y1="2.21811" x2="66.2992" y2="16.3727" gradientUnits="userSpaceOnUse">
<stop stop-color="#A82BA5"/>
<stop offset="0.958218" stop-color="#7630AD"/>
</linearGradient>
</defs>
</svg>
