<svg width="660" height="322" viewBox="0 0 660 322" fill="none" xmlns="http://www.w3.org/2000/svg">
<g clip-path="url(#clip0_1_2774)">
<path opacity="0.11" d="M359.334 225.371C358.518 225.9 358.286 226.991 358.815 227.807C359.345 228.623 360.435 228.855 361.251 228.325C362.066 227.796 362.298 226.705 361.769 225.889C361.24 225.074 360.15 224.841 359.334 225.371Z" fill="white"/>
<path d="M349.272 220.363C348.661 220.76 348.487 221.578 348.884 222.189C349.281 222.801 350.098 222.975 350.71 222.578C351.321 222.181 351.495 221.364 351.098 220.752C350.701 220.14 349.884 219.966 349.272 220.363Z" fill="white"/>
<path d="M334.968 251.677C334.356 252.074 334.182 252.892 334.579 253.503C334.976 254.115 335.793 254.289 336.405 253.892C337.016 253.495 337.19 252.678 336.794 252.066C336.397 251.454 335.579 251.28 334.968 251.677Z" fill="white"/>
<path d="M398.671 212.43C398.06 212.827 397.886 213.645 398.283 214.257C398.679 214.869 399.497 215.043 400.108 214.646C400.72 214.249 400.894 213.431 400.497 212.819C400.1 212.208 399.283 212.034 398.671 212.43Z" fill="white"/>
<path opacity="0.11" d="M423.716 170.992C422.901 171.521 422.668 172.612 423.198 173.428C423.727 174.244 424.817 174.476 425.633 173.946C426.449 173.417 426.681 172.326 426.151 171.511C425.622 170.695 424.532 170.463 423.716 170.992Z" fill="white"/>
<path d="M448.275 178.134C447.867 178.398 447.751 178.943 448.016 179.35C448.28 179.758 448.825 179.874 449.232 179.61C449.64 179.345 449.756 178.8 449.491 178.393C449.227 177.985 448.682 177.869 448.275 178.134Z" fill="white"/>
<path d="M342.875 195.138C342.467 195.402 342.351 195.947 342.616 196.355C342.88 196.762 343.425 196.878 343.833 196.614C344.24 196.349 344.356 195.805 344.091 195.397C343.827 194.989 343.282 194.873 342.875 195.138Z" fill="white"/>
<path d="M181.951 299.587C181.543 299.851 181.427 300.396 181.692 300.804C181.956 301.211 182.501 301.327 182.908 301.063C183.316 300.798 183.432 300.254 183.167 299.846C182.903 299.438 182.358 299.323 181.951 299.587Z" fill="white"/>
<path d="M600.653 54.0454C600.246 54.3099 600.13 54.8547 600.394 55.2623C600.659 55.6699 601.203 55.7859 601.611 55.5214C602.018 55.2569 602.134 54.712 601.87 54.3045C601.605 53.8969 601.061 53.781 600.653 54.0454Z" fill="white"/>
<path opacity="0.11" d="M637.585 86.7292C637.177 86.9937 637.061 87.5385 637.326 87.9461C637.59 88.3536 638.135 88.4696 638.542 88.2051C638.95 87.9406 639.066 87.3958 638.801 86.9883C638.537 86.5807 637.992 86.4647 637.585 86.7292Z" fill="white"/>
<path opacity="0.11" d="M658.305 49.1461C657.897 49.4106 657.781 49.9554 658.046 50.363C658.31 50.7705 658.855 50.8865 659.262 50.622C659.67 50.3575 659.786 49.8127 659.521 49.4051C659.257 48.9976 658.712 48.8816 658.305 49.1461Z" fill="white"/>
<path opacity="0.11" d="M605.207 20.6571C604.799 20.9216 604.684 21.4665 604.948 21.8741C605.212 22.2816 605.757 22.3976 606.165 22.1331C606.572 21.8686 606.688 21.3238 606.424 20.9162C606.159 20.5087 605.614 20.3926 605.207 20.6571Z" fill="white"/>
<path opacity="0.11" d="M448.697 164.223C448.29 164.487 448.174 165.032 448.438 165.439C448.703 165.847 449.247 165.963 449.655 165.698C450.062 165.434 450.178 164.889 449.914 164.482C449.649 164.074 449.105 163.958 448.697 164.223Z" fill="white"/>
<path opacity="0.11" d="M327.094 167.601C326.686 167.865 326.57 168.41 326.835 168.818C327.099 169.225 327.644 169.341 328.051 169.077C328.459 168.812 328.575 168.267 328.31 167.86C328.046 167.452 327.501 167.336 327.094 167.601Z" fill="white"/>
<path opacity="0.11" d="M190.17 266.977C189.762 267.241 189.646 267.786 189.911 268.194C190.175 268.601 190.72 268.717 191.127 268.453C191.535 268.188 191.651 267.643 191.386 267.236C191.122 266.828 190.577 266.712 190.17 266.977Z" fill="white"/>
<path opacity="0.3" d="M578.669 94.5448C578.261 94.8093 578.145 95.3541 578.41 95.7617C578.674 96.1692 579.219 96.2853 579.626 96.0208C580.034 95.7563 580.15 95.2114 579.885 94.8039C579.621 94.3963 579.076 94.2803 578.669 94.5448Z" fill="white"/>
<path d="M434.766 244.613C434.359 244.878 434.243 245.422 434.508 245.83C434.772 246.238 435.317 246.354 435.724 246.089C436.132 245.825 436.248 245.28 435.983 244.872C435.719 244.465 435.174 244.349 434.766 244.613Z" fill="white"/>
<path d="M322.049 319.874C321.641 320.138 321.525 320.683 321.79 321.09C322.054 321.498 322.599 321.614 323.006 321.35C323.414 321.085 323.53 320.54 323.265 320.133C323.001 319.725 322.456 319.609 322.049 319.874Z" fill="white"/>
<path d="M440.889 144.107C440.482 144.372 440.366 144.916 440.63 145.324C440.895 145.732 441.439 145.848 441.847 145.583C442.254 145.319 442.37 144.774 442.106 144.366C441.841 143.959 441.297 143.843 440.889 144.107Z" fill="white"/>
<path d="M492.559 110.566C492.152 110.831 492.036 111.375 492.3 111.783C492.564 112.19 493.109 112.306 493.517 112.042C493.924 111.777 494.04 111.233 493.776 110.825C493.511 110.417 492.966 110.302 492.559 110.566Z" fill="white"/>
<path opacity="0.11" d="M582.778 117.057C582.37 117.321 582.254 117.866 582.519 118.274C582.783 118.681 583.328 118.797 583.735 118.533C584.143 118.268 584.259 117.723 583.994 117.316C583.73 116.908 583.185 116.792 582.778 117.057Z" fill="white"/>
<path opacity="0.3" d="M409.974 235.519C409.566 235.783 409.45 236.328 409.715 236.736C409.979 237.143 410.524 237.259 410.931 236.995C411.339 236.73 411.455 236.186 411.19 235.778C410.926 235.37 410.381 235.254 409.974 235.519Z" fill="white"/>
<path opacity="0.3" d="M419.233 138.225C418.826 138.489 418.71 139.034 418.974 139.442C419.239 139.849 419.783 139.965 420.191 139.701C420.598 139.436 420.714 138.891 420.45 138.484C420.185 138.076 419.641 137.96 419.233 138.225Z" fill="white"/>
<path opacity="0.3" d="M503.763 72.8677C503.355 73.1322 503.239 73.6769 503.504 74.0845C503.768 74.4921 504.313 74.608 504.72 74.3435C505.128 74.079 505.244 73.5343 504.979 73.1267C504.715 72.7191 504.17 72.6032 503.763 72.8677Z" fill="white"/>
<path opacity="0.3" d="M557.259 108.436C556.851 108.701 556.735 109.246 557 109.653C557.264 110.061 557.809 110.177 558.216 109.912C558.624 109.648 558.74 109.103 558.475 108.695C558.211 108.288 557.666 108.172 557.259 108.436Z" fill="white"/>
<path opacity="0.3" d="M281.348 236.121C280.533 236.651 280.301 237.741 280.83 238.557C281.359 239.373 282.45 239.605 283.265 239.076C284.081 238.546 284.313 237.456 283.784 236.64C283.254 235.824 282.164 235.592 281.348 236.121Z" fill="white"/>
<path opacity="0.11" d="M252.164 286.539C251.349 287.068 251.117 288.159 251.646 288.975C252.175 289.79 253.266 290.023 254.081 289.493C254.897 288.964 255.129 287.873 254.6 287.057C254.07 286.242 252.98 286.009 252.164 286.539Z" fill="white"/>
<path d="M269.297 312.141C268.685 312.538 268.511 313.355 268.908 313.967C269.305 314.579 270.123 314.753 270.734 314.356C271.346 313.959 271.52 313.141 271.123 312.53C270.726 311.918 269.909 311.744 269.297 312.141Z" fill="white"/>
<path d="M269.928 201.559C269.316 201.956 269.142 202.773 269.539 203.385C269.936 203.997 270.753 204.171 271.365 203.774C271.976 203.377 272.15 202.559 271.754 201.948C271.357 201.336 270.539 201.162 269.928 201.559Z" fill="white"/>
<path d="M502.492 47.4606C501.88 47.8575 501.706 48.6752 502.103 49.2869C502.5 49.8986 503.317 50.0726 503.929 49.6757C504.54 49.2787 504.714 48.4611 504.318 47.8494C503.921 47.2377 503.103 47.0636 502.492 47.4606Z" fill="white"/>
<path d="M611.675 0.718927C611.064 1.11589 610.89 1.93363 611.286 2.54532C611.683 3.15702 612.501 3.33107 613.112 2.9341C613.724 2.53713 613.898 1.71948 613.501 1.10778C613.104 0.496088 612.287 0.32196 611.675 0.718927Z" fill="white"/>
<path d="M643.387 22.1054C642.775 22.5024 642.601 23.32 642.998 23.9317C643.395 24.5434 644.212 24.7175 644.824 24.3206C645.435 23.9236 645.609 23.1059 645.213 22.4942C644.816 21.8825 643.998 21.7084 643.387 22.1054Z" fill="white"/>
<path d="M295.144 274.376C294.532 274.773 294.358 275.591 294.755 276.203C295.152 276.814 295.97 276.989 296.581 276.592C297.193 276.195 297.367 275.377 296.97 274.765C296.573 274.153 295.755 273.979 295.144 274.376Z" fill="white"/>
<path d="M388.136 136.374C387.525 136.771 387.35 137.589 387.747 138.201C388.144 138.812 388.962 138.986 389.573 138.59C390.185 138.193 390.359 137.375 389.962 136.763C389.565 136.151 388.748 135.977 388.136 136.374Z" fill="white"/>
<path d="M181.524 225.366C180.912 225.763 180.738 226.581 181.135 227.192C181.532 227.804 182.349 227.978 182.961 227.581C183.573 227.184 183.747 226.366 183.35 225.755C182.953 225.143 182.135 224.969 181.524 225.366Z" fill="white"/>
<path d="M536.118 61.3063C535.302 61.8357 535.07 62.9263 535.6 63.7421C536.129 64.5579 537.219 64.7901 538.035 64.2606C538.851 63.7312 539.083 62.6407 538.553 61.8248C538.024 61.009 536.934 60.7769 536.118 61.3063Z" fill="white"/>
<path d="M622.263 63.1017C621.447 63.6312 621.215 64.7217 621.744 65.5375C622.273 66.3533 623.364 66.5855 624.179 66.056C624.995 65.5266 625.227 64.4361 624.698 63.6202C624.169 62.8044 623.078 62.5723 622.263 63.1017Z" fill="white"/>
<path d="M532.993 156.718C532.177 157.248 531.945 158.338 532.474 159.154C533.003 159.97 534.094 160.202 534.909 159.673C535.725 159.143 535.957 158.053 535.428 157.237C534.898 156.421 533.808 156.189 532.993 156.718Z" fill="white"/>
<path opacity="0.11" d="M562.503 158.548C561.687 159.078 561.455 160.168 561.984 160.984C562.514 161.8 563.604 162.032 564.42 161.503C565.235 160.973 565.467 159.883 564.938 159.067C564.409 158.251 563.318 158.019 562.503 158.548Z" fill="white"/>
<path opacity="0.3" d="M537.745 107.465C536.93 107.994 536.698 109.085 537.227 109.901C537.756 110.716 538.847 110.949 539.662 110.419C540.478 109.89 540.71 108.799 540.181 107.983C539.651 107.167 538.561 106.935 537.745 107.465Z" fill="white"/>
<path d="M492.098 138.147C491.486 138.544 491.312 139.362 491.709 139.974C492.106 140.585 492.923 140.759 493.535 140.362C494.146 139.965 494.32 139.148 493.923 138.536C493.527 137.924 492.709 137.75 492.098 138.147Z" fill="white"/>
</g>
<defs>
<clipPath id="clip0_1_2774">
<rect width="660" height="322" fill="white"/>
</clipPath>
</defs>
</svg>
